<?xml version="1.0" encoding="UTF-8"?> <svg xmlns="http://www.w3.org/2000/svg" viewBox="0 0 100 100" fill-rule="evenodd"><rect x="0" y="0" width="100" height="100" fill="#e2e2e2" rx="50" ry="50"></rect><g style="transform-origin: center center; transform: scale(0.6);"><path d="M62.786 73.331a1.503 1.503 0 0 0-1.966.798 11.34 11.34 0 0 1-10.464 6.939c-4.361 0-8.39-2.55-10.264-6.495a1.5 1.5 0 1 0-2.71 1.287c2.368 4.986 7.461 8.208 12.974 8.208a14.337 14.337 0 0 0 13.228-8.771 1.5 1.5 0 0 0-.798-1.966zM42.975 59.134a1.5 1.5 0 1 0-2.234-2.002c-1.841 2.055-3.683 3.058-5.493 2.966-2.802-.134-4.814-2.82-4.836-2.85a1.499 1.499 0 0 0-2.091-.33 1.501 1.501 0 0 0-.334 2.096c.114.157 2.846 3.86 7.088 4.079.134.007.267.011.4.011 2.617 0 5.139-1.334 7.5-3.97zm26.816-2.002c-1.84 2.054-3.689 3.062-5.493 2.966-2.794-.133-4.804-2.802-4.84-2.85a1.5 1.5 0 0 0-2.425 1.766c.114.157 2.848 3.861 7.093 4.079.133.008.266.011.398.011 2.618 0 5.14-1.334 7.501-3.97a1.5 1.5 0 1 0-2.234-2.002z" fill="#000000"></path><path d="M85.363 44.21c-.236-4.092-1.508-15.014-8.357-21.437-3.771-3.537-8.618-5.133-14.399-4.741-3.367.228-6.438.497-9.148.733-16.874 1.477-21.966 1.921-27.171-12.579-.23-.644-.898-1.048-1.583-.984a1.524 1.524 0 0 0-.562.168c-.439.232-10.786 5.819-13.811 17.029-1.843 6.828-.547 14.182 3.848 21.882-6.485 1.005-11.47 6.608-11.47 13.368 0 7.475 6.077 13.556 13.547 13.556h.975c5.16 13.802 17.947 23.603 32.877 23.603 14.926 0 27.709-9.8 32.868-23.603h.77c7.468 0 13.544-6.081 13.544-13.556-.001-6.922-5.222-12.64-11.928-13.439zM13.22 23.208c2.038-7.591 8.094-12.414 10.887-14.293C29.966 23.83 37.161 23.2 53.72 21.753c2.695-.236 5.751-.503 9.09-.729 4.911-.335 8.997.989 12.137 3.929 6.154 5.764 7.239 16.224 7.43 19.691-13.143 2.937-17.678-11.105-17.868-11.719a1.5 1.5 0 0 0-2.661-.422C53.49 44.391 39.844 46.892 34.365 47.416c-7.179.685-13.88-.632-16.787-3.284-4.611-7.476-6.078-14.516-4.358-20.924zM5.71 57.649c0-5.315 3.957-9.711 9.077-10.43v10.43c0 3.666.515 7.207 1.46 10.555-5.811-.005-10.537-4.738-10.537-10.555zm44.398 34.159c-17.822 0-32.321-15.323-32.321-34.158v-9.736c3.139 1.735 7.63 2.69 12.728 2.69a43.5 43.5 0 0 0 4.136-.201c5.554-.531 18.921-2.962 28.036-14.05 2.2 4.601 8.092 13.608 19.733 11.342v9.955c0 18.834-14.495 34.158-32.312 34.158zm33.855-23.614a38.814 38.814 0 0 0 1.457-10.545v-10.4c5.019.803 8.87 5.154 8.87 10.4 0 5.747-4.614 10.428-10.327 10.545z" fill="#000000"></path></g></svg> 